<svg width="100" height="100" viewBox="0 0 100 100" fill="none" xmlns="http://www.w3.org/2000/svg">
<path d="M90 0H10C4.5 0 0 4.5 0 10V90C0 95.5 4.5 100 10 100H90C95.5 100 100 95.5 100 90V10C100 4.5 95.5 0 90 0ZM78.5 36.5C78 59.5 63.5 75.5 41.5 76.5C32.5 77 26 74 20 70.5C26.5 71.5002 35 69.0002 39.5 65C33 64.5 29 61 27 55.5C29 56 31 55.5 32.5 55.5C26.5 53.5 22.5 50 22 42C23.5 43 25.5 43.5 27.5 43.5C23 41 20 31.5 23.5 25.5C30 32.5 38 38.5 51 39.5C47.5 25.5 66.5002 18 74.0002 27.5C77.5002 27 80.0002 25.5 82.5002 24.5C81.5002 28 79.5002 30 77.0002 32C79.5002 31.5 82.0002 31 84.0002 30C83.5 32.5 81 34.5 78.5 36.5Z" fill="#B86767"/>
</svg>
